<?xml version="1.0" standalone="no"?>
<!DOCTYPE svg PUBLIC "-//W3C//DTD SVG 20010904//EN"
 "http://www.w3.org/TR/2001/REC-SVG-20010904/DTD/svg10.dtd">
<svg version="1.0" xmlns="http://www.w3.org/2000/svg"
 width="430.000000pt" height="430.000000pt" viewBox="0 0 430.000000 430.000000"
 preserveAspectRatio="xMidYMid meet">
<metadata>
Created by potrace 1.11, written by Peter Selinger 2001-2013
</metadata>
<g transform="translate(0.000000,430.000000) scale(0.100000,-0.100000)"
fill="#000000" stroke="none">
<path d="M2675 3691 c-49 -21 -122 -159 -156 -296 -33 -132 -42 -170 -59 -259
-11 -54 -20 -122 -21 -150 -1 -28 -6 -62 -11 -75 -14 -39 -19 -147 -8 -176 15
-39 50 -64 90 -65 65 0 64 -3 74 200 4 69 14 164 23 213 l17 87 115 0 116 0 2
-78 c1 -44 10 -103 22 -138 11 -34 23 -84 26 -110 8 -52 59 -150 84 -159 23
-9 113 28 123 51 7 15 3 37 -16 84 -14 35 -26 67 -26 72 0 5 -13 36 -30 69
-16 33 -29 70 -29 82 2 22 -12 82 -37 169 -8 26 -37 89 -65 140 -28 51 -59
116 -69 143 -78 209 -73 200 -110 202 -19 1 -44 -2 -55 -6z m60 -203 c11 -24
28 -56 39 -73 29 -41 42 -67 50 -98 5 -23 2 -29 -19 -37 -36 -14 -129 -12
-143 2 -17 17 -15 41 9 122 12 39 23 80 24 91 4 33 5 35 13 35 5 0 17 -19 27
-42z"/>
<path d="M3149 3654 c-9 -11 -21 -28 -27 -40 -14 -27 -4 -206 15 -264 11 -33
16 -113 19 -305 3 -143 4 -285 4 -316 -1 -52 1 -58 35 -87 86 -76 104 -34 102
245 -2 193 10 224 15 41 2 -53 7 -93 11 -89 5 5 7 57 5 115 -1 58 0 106 4 106
4 0 41 -30 83 -66 50 -44 88 -87 115 -134 69 -119 118 -152 187 -129 33 11 35
13 31 54 -2 34 0 41 9 33 21 -17 15 6 -9 38 -33 45 -101 114 -111 114 -6 0
-29 17 -52 38 -82 71 -133 112 -143 112 -16 0 -42 36 -42 60 0 22 -1 23 -20 5
-27 -24 -27 -1 0 32 11 14 25 44 31 67 6 22 17 48 24 56 7 8 17 29 23 45 10
28 10 29 11 5 0 -14 -6 -36 -14 -50 -8 -14 -14 -32 -14 -40 0 -8 11 9 25 39
28 62 34 158 10 167 -8 3 -12 12 -9 21 8 20 -90 110 -135 124 -21 6 -66 13
-102 16 -55 4 -67 2 -81 -13z m150 -150 c23 -19 31 -34 31 -59 0 -45 -35 -87
-69 -83 -23 3 -27 9 -34 53 -16 108 10 141 72 89z"/>
<path d="M2114 3586 c-59 -61 -74 -100 -74 -192 0 -67 -13 -88 -51 -82 -21 3
-27 11 -99 158 -4 8 -13 15 -21 15 -8 0 -14 9 -14 20 0 30 -106 100 -139 91
-61 -15 -101 -109 -117 -273 -5 -59 -14 -126 -19 -148 -15 -59 -21 -139 -20
-235 0 -78 3 -87 26 -107 34 -31 76 -29 111 3 15 14 22 22 14 18 -9 -4 -12 -2
-9 7 3 8 11 13 17 11 8 -1 11 6 9 20 -2 13 -9 22 -16 21 -16 -4 -15 10 0 25 9
9 15 77 19 227 3 118 8 218 11 221 4 3 11 -4 18 -15 6 -12 9 -21 6 -21 -9 0
16 -65 60 -155 46 -96 137 -225 158 -225 17 0 51 49 60 85 4 17 27 71 50 120
68 140 75 159 79 198 2 21 7 41 11 44 6 7 7 6 11 -42 1 -16 7 -55 13 -85 6
-30 13 -103 16 -161 9 -188 22 -229 73 -229 13 0 40 12 59 27 27 20 35 32 31
50 -2 13 -1 23 4 23 13 0 8 192 -6 233 -7 21 -9 40 -4 43 5 3 9 39 9 80 0 63
-5 84 -31 135 -16 33 -48 81 -71 105 -35 38 -46 44 -81 44 -36 0 -47 -6 -93
-54z"/>
<path d="M1040 3581 c-19 -4 -58 -19 -86 -34 -41 -21 -60 -40 -105 -108 -58
-88 -67 -127 -68 -290 -1 -71 18 -111 90 -193 45 -52 83 -66 199 -73 108 -7
153 3 260 55 55 27 65 40 176 216 33 52 49 167 32 233 -10 38 -125 156 -180
184 -31 16 -57 19 -160 18 -68 -1 -139 -5 -158 -8z m195 -155 c11 -7 32 -16
46 -19 41 -10 99 -81 99 -120 0 -38 -14 -61 -78 -122 -107 -103 -263 -141
-299 -73 -40 77 -47 98 -47 154 -1 52 3 66 27 97 56 74 198 121 252 83z"/>
<path d="M3761 2764 c0 -11 3 -14 6 -6 3 7 2 16 -1 19 -3 4 -6 -2 -5 -13z"/>
<path d="M2133 2730 c-84 -7 -106 -23 -154 -106 -23 -40 -29 -63 -28 -105 0
-42 3 -49 10 -34 7 14 8 5 5 -35 -4 -60 10 -114 27 -103 5 3 7 1 3 -5 -3 -6 7
-34 24 -62 16 -28 30 -55 30 -60 0 -4 -25 -34 -55 -67 -76 -79 -135 -200 -142
-285 -6 -71 8 -110 55 -161 32 -34 119 -61 163 -52 22 5 29 4 25 -4 -5 -7 1
-11 14 -11 31 0 110 21 110 29 0 4 19 16 42 26 24 10 51 27 62 37 23 21 42 23
52 6 4 -7 3 -8 -4 -4 -6 3 -16 -3 -22 -14 -6 -11 -18 -20 -28 -21 -10 0 -12
-3 -5 -5 7 -3 32 6 56 20 72 42 105 33 114 -32 6 -47 15 -57 58 -65 22 -4 37
1 56 16 l27 22 -17 53 c-13 42 -24 57 -48 69 -35 16 -49 41 -33 57 15 15 12
26 -5 20 -24 -10 -18 25 11 63 35 46 76 83 85 77 5 -3 14 4 21 16 7 11 20 20
29 20 17 0 74 48 67 56 -9 9 -36 -7 -45 -28 -7 -17 -11 -18 -21 -6 -9 11 -6
22 14 51 l24 37 -26 6 c-34 9 -85 -18 -135 -70 -55 -57 -89 -77 -111 -65 -10
5 -34 35 -54 67 -38 59 -104 138 -104 124 0 -5 15 -26 33 -48 61 -71 69 -97
38 -135 -16 -20 -21 -21 -34 -10 -9 7 -23 35 -32 62 -12 34 -30 60 -61 86 -24
21 -44 43 -44 50 0 6 -7 19 -15 27 -9 8 -27 41 -41 73 -14 32 -20 52 -13 46
20 -20 31 -15 23 10 -4 12 -7 31 -6 42 1 14 -1 16 -7 6 -7 -11 -13 -9 -29 7
-24 24 -37 80 -28 120 3 15 9 38 12 52 8 35 22 49 45 43 14 -4 18 -11 13 -25
-5 -17 -3 -18 15 -9 54 30 98 -58 72 -143 -5 -17 -15 -50 -21 -73 -8 -34 -15
-43 -32 -43 l-21 0 21 -22 c11 -13 21 -27 21 -33 1 -5 11 -10 24 -10 45 0 119
206 102 287 -4 18 -16 48 -26 66 -10 18 -19 40 -19 48 0 8 -5 14 -11 14 -6 0
-9 6 -6 14 3 8 -5 18 -19 25 -14 6 -26 10 -27 10 -1 -1 -35 -5 -74 -9z m-23
-652 c0 -11 -17 -43 -37 -71 -70 -94 -90 -170 -59 -213 10 -13 11 -23 4 -31
-32 -39 -72 22 -64 98 6 52 21 87 69 159 59 88 87 107 87 58z m108 -48 c28
-36 63 -79 77 -96 14 -18 25 -36 25 -40 -1 -20 -78 -93 -117 -113 -69 -34
-169 -21 -187 24 -18 49 9 127 70 207 16 20 37 51 47 69 10 18 21 28 26 23 4
-5 31 -38 59 -74z m284 -227 c-5 -10 -7 -24 -4 -32 4 -12 3 -12 -11 0 -14 13
-14 16 0 32 9 9 18 17 20 17 2 0 0 -8 -5 -17z m-333 -112 c20 -13 4 -31 -27
-30 -15 0 -21 3 -14 6 6 2 12 11 12 19 0 16 9 18 29 5z"/>
<path d="M3321 2724 c0 -11 3 -14 6 -6 3 7 2 16 -1 19 -3 4 -6 -2 -5 -13z"/>
<path d="M2347 2622 c15 -28 29 -49 31 -47 5 5 -37 83 -48 90 -6 4 2 -16 17
-43z"/>
<path d="M2116 2565 c-3 -9 -5 -29 -5 -43 1 -20 3 -17 9 13 8 43 7 57 -4 30z"/>
<path d="M2111 2444 c0 -11 3 -14 6 -6 3 7 2 16 -1 19 -3 4 -6 -2 -5 -13z"/>
<path d="M2291 2344 c-17 -37 -8 -39 13 -4 9 17 13 30 8 30 -5 0 -14 -12 -21
-26z"/>
<path d="M634 1651 c-30 -14 -44 -28 -53 -51 -15 -43 -14 -92 2 -113 15 -21
110 -25 188 -8 74 15 301 11 306 -6 3 -7 -6 -23 -19 -35 -14 -13 -43 -48 -65
-78 -67 -91 -199 -238 -250 -279 -75 -60 -85 -74 -74 -104 7 -17 22 -29 44
-35 18 -5 55 -26 81 -45 26 -20 64 -41 84 -46 20 -6 127 -15 237 -21 110 -6
225 -13 256 -16 56 -6 57 -5 84 30 23 30 27 43 22 76 -8 61 -44 85 -127 85
-109 1 -450 18 -450 22 0 18 215 245 247 262 18 9 97 73 215 174 29 26 47 91
31 116 -5 8 -38 27 -74 42 -77 33 -241 49 -488 49 -131 0 -163 -3 -197 -19z"/>
<path d="M1845 1411 c-83 -9 -127 -28 -177 -75 -48 -45 -58 -66 -58 -114 0
-48 11 -58 73 -67 l47 -7 0 34 c0 42 20 62 75 77 68 18 92 14 150 -29 56 -42
59 -48 49 -112 l-7 -38 -56 0 c-31 0 -94 -5 -140 -12 -71 -10 -87 -15 -110
-40 -14 -16 -38 -42 -53 -56 -73 -74 -51 -228 40 -285 63 -40 144 -61 204 -52
68 9 121 9 180 0 44 -7 47 -6 61 21 21 42 42 124 64 244 20 112 17 252 -7 334
-18 58 -91 131 -158 156 -72 27 -91 29 -177 21z m122 -495 c11 -13 25 -42 33
-64 15 -48 8 -61 -43 -85 -27 -13 -41 -13 -93 -2 -108 22 -138 59 -89 105 75
70 158 90 192 46z"/>
<path d="M2340 1317 c-44 -22 -55 -60 -53 -191 1 -66 7 -132 14 -148 8 -21 10
-75 6 -188 l-5 -158 29 -13 c23 -9 39 -9 68 -1 31 10 40 18 49 49 15 54 42
253 42 318 0 67 18 86 94 105 50 12 100 10 196 -6 46 -7 86 23 100 77 24 89
-29 119 -215 122 -104 2 -113 0 -157 -25 -55 -33 -78 -35 -78 -9 0 19 -45 81
-58 81 -4 0 -18 -6 -32 -13z"/>
<path d="M2998 1253 c-18 -19 -24 -67 -12 -97 5 -13 22 -16 81 -16 75 0 105
-9 134 -39 14 -15 11 -19 -40 -43 -31 -15 -76 -34 -101 -43 -90 -32 -180 -146
-180 -230 0 -65 45 -127 119 -165 33 -16 72 -30 87 -30 14 0 41 -7 59 -16 18
-8 50 -14 71 -12 39 3 39 3 67 83 51 144 69 218 70 300 1 44 6 83 10 86 15 11
-13 122 -40 161 -32 47 -88 67 -213 75 -86 5 -97 4 -112 -14z m196 -440 c-4
-49 -10 -92 -14 -96 -12 -14 -91 5 -118 28 -19 17 -26 32 -26 59 0 53 30 79
102 87 31 3 58 7 60 8 1 0 -1 -38 -4 -86z"/>
</g>
</svg>
